<?xml version="1.0" standalone="no"?>
<!DOCTYPE svg PUBLIC "-//W3C//DTD SVG 20010904//EN"
 "http://www.w3.org/TR/2001/REC-SVG-20010904/DTD/svg10.dtd">
<svg version="1.0" xmlns="http://www.w3.org/2000/svg"
 width="224.000000pt" height="225.000000pt" viewBox="0 0 224.000000 225.000000"
 preserveAspectRatio="xMidYMid meet">

<g transform="translate(0.000000,225.000000) scale(0.100000,-0.100000)"
fill="#000000" stroke="none">
<path d="M965 2224 c-11 -2 -45 -9 -75 -15 -209 -40 -433 -166 -580 -326 -120
-131 -208 -291 -257 -469 -26 -92 -28 -113 -28 -284 0 -172 2 -192 28 -285
130 -470 529 -791 1008 -812 149 -7 255 7 379 47 336 110 593 363 706 694 79
232 74 524 -15 751 -104 271 -297 479 -556 601 -148 70 -261 96 -440 100 -82
1 -159 1 -170 -2z m399 -33 c415 -109 721 -430 807 -845 30 -145 23 -369 -16
-506 -73 -259 -230 -473 -454 -621 -105 -70 -206 -115 -341 -152 -112 -31
-381 -31 -497 0 -220 59 -390 158 -540 316 -193 203 -293 459 -293 747 0 291
101 545 299 753 161 169 363 279 594 323 104 20 338 12 441 -15z"/>
<path d="M1056 2165 c-19 -19 -21 -66 -4 -83 20 -20 56 -14 74 12 32 50 -29
112 -70 71z m54 -24 c14 -27 2 -53 -24 -49 -21 3 -32 28 -22 54 8 20 33 17 46
-5z"/>
<path d="M990 2150 c0 -13 -7 -20 -20 -20 -11 0 -20 7 -20 15 0 8 -4 15 -10
15 -11 0 -13 -42 -4 -77 4 -13 10 -23 15 -23 5 0 7 11 3 25 -5 21 -3 25 16 25
13 0 24 -8 27 -20 3 -11 10 -20 15 -20 6 0 7 7 4 16 -3 9 -6 31 -6 50 0 19 -4
34 -10 34 -5 0 -10 -9 -10 -20z"/>
<path d="M1164 2135 c-3 -19 -4 -42 0 -50 6 -15 61 -21 69 -7 11 17 18 92 9
92 -5 0 -13 -19 -18 -42 -6 -28 -15 -43 -24 -43 -11 0 -15 11 -13 43 2 51 -13
56 -23 7z"/>
<path d="M832 2138 c-26 -26 -4 -98 29 -98 20 0 49 21 49 35 0 20 -10 19 -25
-2 -19 -25 -47 -9 -43 24 2 24 7 28 31 26 29 -2 37 11 11 21 -24 9 -39 7 -52
-6z"/>
<path d="M1282 2108 c-22 -41 -22 -62 -1 -41 13 13 39 6 56 -16 11 -13 12 -8
7 29 -3 25 -7 51 -10 58 -7 24 -29 11 -52 -30z m34 -15 c-10 -10 -19 5 -10 18
6 11 8 11 12 0 2 -7 1 -15 -2 -18z"/>
<path d="M1380 2095 c-14 -44 -8 -83 7 -45 17 43 24 80 14 80 -5 0 -15 -16
-21 -35z"/>
<path d="M1426 2077 c-21 -55 -21 -53 13 -65 32 -11 70 6 57 26 -3 6 -2 13 4
17 19 12 10 34 -20 50 -16 8 -31 15 -33 15 -2 0 -12 -19 -21 -43z m59 3 c3 -5
-3 -10 -14 -10 -12 0 -21 5 -21 10 0 6 6 10 14 10 8 0 18 -4 21 -10z m-16 -34
c14 -17 0 -29 -23 -20 -17 7 -20 16 -9 27 10 11 19 8 32 -7z"/>
<path d="M700 2099 c-34 -14 -34 -13 -15 -64 14 -35 22 -44 34 -39 9 3 24 9
34 11 29 9 19 23 -13 17 -34 -7 -43 14 -10 23 11 3 20 9 20 14 0 5 -11 7 -24
3 -13 -3 -27 -1 -30 5 -4 6 4 13 19 17 14 3 25 10 25 15 0 11 -8 11 -40 -2z"/>
<path d="M603 2053 c-35 -18 -46 -38 -15 -29 14 5 22 -3 35 -29 9 -19 21 -35
27 -35 14 0 13 6 -6 42 -13 25 -14 36 -5 50 13 22 6 22 -36 1z"/>
<path d="M1567 2015 l-26 -45 22 -15 c29 -20 43 -19 67 5 28 28 25 55 -9 79
l-29 21 -25 -45z m59 1 c7 -19 -13 -56 -31 -56 -21 0 -26 16 -14 44 13 28 36
34 45 12z"/>
<path d="M930 2025 c-191 -39 -345 -127 -482 -275 -289 -311 -324 -780 -85
-1135 311 -460 967 -531 1369 -147 187 179 281 400 281 662 1 153 -24 262 -88
396 -125 260 -365 447 -642 500 -92 17 -266 17 -353 -1z m395 -20 c244 -58
465 -237 584 -471 49 -97 53 -112 33 -124 -15 -10 -15 -10 2 -8 15 2 22 -7 33
-47 50 -190 29 -425 -54 -602 -21 -43 -28 -51 -39 -42 -16 13 -19 -2 -4 -17
26 -26 -141 -223 -256 -301 -57 -39 -156 -93 -142 -78 4 4 3 16 -2 25 -7 13
-5 21 4 29 20 17 32 -5 14 -26 -12 -15 -11 -15 10 -2 26 16 29 39 5 39 -14 1
-12 6 11 24 29 24 28 46 -1 46 -9 0 -33 -16 -55 -36 -23 -20 -46 -33 -54 -30
-9 3 -12 1 -9 -4 11 -18 31 -10 65 25 19 19 40 35 48 35 21 0 12 -13 -41 -59
-55 -47 -90 -59 -115 -40 -15 13 -16 12 -3 -3 16 -22 37 -23 75 -3 38 20 38
20 18 -15 -17 -30 -48 -44 -147 -69 -32 -8 -36 -7 -21 2 35 22 59 49 48 56 -5
3 -12 23 -15 44 -3 21 -8 41 -12 45 -4 4 -4 -12 0 -34 4 -26 2 -44 -4 -49 -18
-10 -12 -25 7 -18 14 6 15 4 4 -9 -7 -9 -34 -21 -60 -28 -38 -9 -55 -8 -90 4
-54 19 -54 11 1 -15 l42 -20 -125 5 c-346 13 -629 201 -779 517 -163 341 -87
758 186 1026 110 108 282 201 432 234 105 23 298 20 406 -6z"/>
<path d="M906 1714 c-31 -36 -56 -70 -56 -75 0 -5 54 -120 120 -255 66 -135
120 -248 120 -250 0 -2 -20 -4 -43 -4 -61 0 -189 34 -250 67 -79 42 -201 168
-237 244 -37 80 -60 169 -60 231 0 36 -4 48 -15 48 -9 0 -15 -9 -15 -25 0 -18
-5 -25 -20 -25 -21 0 -24 -10 -14 -47 4 -13 14 -23 24 -23 31 0 42 -64 14 -84
-12 -9 -13 -17 -5 -39 9 -22 15 -26 34 -22 19 5 25 0 36 -31 12 -33 11 -38 -3
-46 -15 -9 -15 -12 1 -39 18 -31 28 -35 38 -19 10 17 29 11 49 -17 15 -20 17
-30 8 -43 -9 -14 -6 -22 14 -41 22 -21 25 -21 37 -6 11 15 14 15 44 -4 27 -17
32 -26 27 -45 -5 -19 -1 -26 21 -34 36 -14 45 -13 45 5 0 16 20 20 35 7 25
-21 91 -34 144 -29 37 4 48 3 31 -2 -14 -5 -22 -10 -17 -11 19 -5 54 -3 65 4
13 8 18 -2 25 -44 3 -17 5 -12 6 14 l1 38 21 -23 c11 -13 18 -19 14 -12 -9 19
30 35 60 23 36 -14 42 -13 19 5 -17 13 -5 15 116 17 132 2 133 2 45 8 l-90 6
75 4 75 5 -45 16 c-25 9 -44 21 -43 27 2 6 -4 9 -12 6 -23 -9 -19 32 6 67 23
33 20 35 -21 14 -17 -9 -38 -32 -49 -53 -28 -54 -56 -75 -111 -82 -28 -4 -50
-4 -50 -2 0 4 104 205 206 398 l53 101 -61 71 c-34 40 -66 72 -71 72 -6 0 -3
-8 6 -18 22 -24 21 -35 -1 -55 -15 -14 -41 -17 -143 -17 -120 1 -125 1 -142
25 -14 19 -15 29 -7 45 18 34 4 22 -54 -46z m48 -80 c-15 -27 -29 -51 -31 -53
-2 -3 -18 9 -35 26 l-31 31 39 46 38 46 24 -23 23 -23 -27 -50z m370 50 l38
-46 -33 -34 c-38 -39 -45 -41 -52 -16 -3 9 -12 33 -21 54 -15 34 -14 37 5 62
11 14 21 26 23 26 1 0 19 -21 40 -46z m-72 -61 l25 -58 -170 -3 c-93 -1 -172
-1 -174 2 -2 2 10 29 27 60 l32 56 118 0 117 0 25 -57z m-303 -142 c17 -41 29
-76 28 -77 -2 -2 -24 40 -51 94 -29 59 -40 89 -28 77 11 -11 34 -53 51 -94z
m325 -21 c-38 -71 -69 -128 -71 -126 -2 1 17 52 42 112 38 89 72 142 93 144 2
0 -27 -58 -64 -130z m-4 84 c0 -10 -152 -388 -160 -396 -6 -8 -170 371 -170
392 0 6 61 10 165 10 91 0 165 -3 165 -6z m-7 -411 c-7 -2 -21 -2 -30 0 -10 3
-4 5 12 5 17 0 24 -2 18 -5z"/>
<path d="M1077 1512 c-21 -23 -22 -85 -2 -102 22 -18 66 -15 82 6 11 15 11 20
1 23 -6 2 -14 -1 -16 -7 -2 -7 -14 -12 -28 -12 -28 0 -42 37 -24 69 12 23 30
27 47 10 6 -6 17 -9 23 -7 20 6 -17 38 -44 38 -13 0 -30 -8 -39 -18z"/>
<path d="M1690 1733 c0 -12 5 -25 10 -28 13 -8 13 15 0 35 -8 12 -10 11 -10
-7z"/>
<path d="M1674 1636 c4 -22 9 -42 11 -44 6 -7 54 52 55 66 0 9 -7 11 -20 7
-11 -3 -20 -2 -20 3 0 5 -7 9 -16 9 -13 0 -15 -8 -10 -41z"/>
<path d="M1638 1582 c-3 -12 -1 -40 6 -62 l12 -40 37 34 c38 35 49 60 21 49
-9 -3 -20 0 -25 8 -6 10 -9 10 -9 2 0 -21 -16 -15 -27 9 l-10 22 -5 -22z"/>
<path d="M730 1476 c0 -48 3 -58 25 -72 21 -14 31 -15 50 -6 23 10 25 18 25
72 0 74 -18 80 -22 8 -3 -46 -6 -53 -25 -56 -20 -3 -22 2 -25 49 -4 75 -28 79
-28 5z"/>
<path d="M1390 1465 l0 -65 39 0 c47 0 71 20 71 61 0 40 -32 69 -75 69 l-35 0
0 -65z m68 36 c8 -5 12 -22 10 -42 -2 -26 -8 -35 -25 -37 -21 -3 -23 1 -23 42
0 46 10 55 38 37z"/>
<path d="M1603 1505 c-6 -11 -12 -47 -15 -81 l-4 -61 34 24 c19 12 40 23 47
23 14 0 39 27 48 52 5 15 4 15 -24 0 -24 -14 -31 -15 -38 -4 -4 8 -12 12 -17
10 -5 -1 -11 11 -14 27 -5 28 -7 29 -17 10z"/>
<path d="M355 1496 c-16 -11 -18 -26 -16 -102 2 -97 11 -130 11 -41 0 38 4 57
12 57 9 0 9 3 0 12 -17 17 -15 48 5 70 19 21 14 23 -12 4z"/>
<path d="M1875 1435 c4 -27 11 -54 15 -59 5 -5 6 2 3 15 -6 23 -5 23 17 -5 20
-25 22 -31 10 -50 -12 -19 -12 -20 3 -7 19 15 22 46 7 56 -6 4 -22 27 -36 53
l-25 47 6 -50z"/>
<path d="M387 1429 c4 -13 8 -18 11 -10 2 7 -1 18 -6 23 -8 8 -9 4 -5 -13z"/>
<path d="M410 1424 c0 -8 5 -12 10 -9 6 4 8 11 5 16 -9 14 -15 11 -15 -7z"/>
<path d="M1835 1430 c-3 -5 -1 -10 4 -10 6 0 11 5 11 10 0 6 -2 10 -4 10 -3 0
-8 -4 -11 -10z"/>
<path d="M1534 1419 c-6 -8 -15 -36 -19 -63 -3 -27 -9 -55 -12 -63 -5 -13 -2
-13 15 -4 11 6 36 11 56 11 23 0 45 9 65 26 35 29 42 51 12 34 -24 -12 -61
-13 -79 -1 -8 5 -17 23 -21 41 -5 26 -9 30 -17 19z"/>
<path d="M300 1410 c0 -5 5 -10 10 -10 6 0 10 5 10 10 0 6 -4 10 -10 10 -5 0
-10 -4 -10 -10z"/>
<path d="M397 1380 c-3 -11 -1 -20 4 -20 5 0 9 9 9 20 0 11 -2 20 -4 20 -2 0
-6 -9 -9 -20z"/>
<path d="M260 1354 c0 -6 7 -28 15 -47 8 -20 11 -38 6 -41 -11 -7 -20 -66 -10
-66 15 0 29 26 18 37 -8 8 -8 13 0 17 6 4 11 2 11 -4 0 -6 5 -8 10 -5 16 10
12 45 -6 52 -9 3 -22 20 -30 37 -7 17 -13 26 -14 20z"/>
<path d="M1447 1334 c-14 -14 -29 -38 -32 -54 -4 -16 -14 -39 -24 -52 l-18
-23 83 0 c73 0 86 3 106 23 l22 22 -47 0 c-36 0 -47 4 -47 16 0 8 -5 12 -11 8
-8 -4 -10 8 -8 40 2 25 4 46 3 46 -1 0 -13 -12 -27 -26z"/>
<path d="M1910 1294 c0 -3 9 -17 20 -31 11 -14 17 -30 14 -35 -3 -5 -12 -1
-20 9 -12 17 -13 16 -14 -9 0 -37 9 -58 25 -52 24 10 35 -98 14 -138 -12 -22
5 -68 24 -68 6 0 3 8 -5 18 -10 11 -12 25 -7 42 12 41 9 123 -5 149 -10 18
-11 29 -3 42 8 13 8 21 -1 32 -7 8 -10 22 -6 31 4 12 0 16 -15 16 -12 0 -21
-3 -21 -6z"/>
<path d="M336 1212 c6 -4 14 -14 17 -22 4 -10 6 -8 6 8 1 15 -5 22 -16 22 -11
0 -14 -3 -7 -8z"/>
<path d="M1975 1190 c-3 -5 -1 -10 4 -10 6 0 11 5 11 10 0 6 -2 10 -4 10 -3 0
-8 -4 -11 -10z"/>
<path d="M288 1183 c12 -2 30 -2 40 0 9 3 -1 5 -23 4 -22 0 -30 -2 -17 -4z"/>
<path d="M1866 1172 c6 -4 14 -14 17 -22 4 -10 6 -8 6 8 1 15 -5 22 -16 22
-11 0 -14 -3 -7 -8z"/>
<path d="M254 1145 c-4 -8 2 -27 11 -41 10 -15 18 -46 20 -68 5 -74 48 -131
71 -94 5 8 2 9 -9 5 -21 -8 -43 24 -50 76 -5 30 -1 41 16 58 l22 21 -21 -11
c-17 -8 -24 -8 -31 2 -17 21 -23 46 -13 52 6 4 10 -1 10 -9 0 -9 4 -16 8 -16
4 0 8 9 8 20 0 24 -34 28 -42 5z"/>
<path d="M310 1136 c0 -8 6 -16 14 -19 10 -4 12 0 9 14 -6 22 -23 26 -23 5z"/>
<path d="M438 1133 c34 -2 88 -2 120 0 31 2 3 3 -63 3 -66 0 -92 -1 -57 -3z"/>
<path d="M1818 1113 c12 -2 30 -2 40 0 9 3 -1 5 -23 4 -22 0 -30 -2 -17 -4z"/>
<path d="M883 1103 c9 -2 23 -2 30 0 6 3 -1 5 -18 5 -16 0 -22 -2 -12 -5z"/>
<path d="M1263 1103 c9 -2 23 -2 30 0 6 3 -1 5 -18 5 -16 0 -22 -2 -12 -5z"/>
<path d="M803 1093 c9 -2 23 -2 30 0 6 3 -1 5 -18 5 -16 0 -22 -2 -12 -5z"/>
<path d="M1166 1091 c-3 -5 2 -15 12 -22 15 -13 16 -12 3 4 -16 21 -5 21 29 2
14 -8 30 -14 35 -14 11 0 -55 38 -67 39 -4 0 -9 -4 -12 -9z"/>
<path d="M1343 1093 c9 -2 23 -2 30 0 6 3 -1 5 -18 5 -16 0 -22 -2 -12 -5z"/>
<path d="M713 1083 c9 -2 23 -2 30 0 6 3 -1 5 -18 5 -16 0 -22 -2 -12 -5z"/>
<path d="M1017 1065 c-16 -14 -33 -23 -38 -19 -12 7 -579 8 -586 0 -6 -6 185
-8 466 -7 l124 1 -29 -32 -29 -32 38 32 c21 18 41 32 45 32 4 0 15 12 25 25
22 31 19 31 -16 0z"/>
<path d="M1423 1083 c9 -2 23 -2 30 0 6 3 -1 5 -18 5 -16 0 -22 -2 -12 -5z"/>
<path d="M633 1073 c9 -2 23 -2 30 0 6 3 -1 5 -18 5 -16 0 -22 -2 -12 -5z"/>
<path d="M960 1070 c-8 -5 -10 -10 -5 -10 6 0 17 5 25 10 8 5 11 10 5 10 -5 0
-17 -5 -25 -10z"/>
<path d="M1503 1073 c9 -2 23 -2 30 0 6 3 -1 5 -18 5 -16 0 -22 -2 -12 -5z"/>
<path d="M543 1063 c9 -2 23 -2 30 0 6 3 -1 5 -18 5 -16 0 -22 -2 -12 -5z"/>
<path d="M1583 1063 c9 -2 23 -2 30 0 6 3 -1 5 -18 5 -16 0 -22 -2 -12 -5z"/>
<path d="M1150 1050 c0 -5 5 -10 11 -10 5 0 7 5 4 10 -3 6 -8 10 -11 10 -2 0
-4 -4 -4 -10z"/>
<path d="M1200 1053 c1 -4 17 -18 36 -30 19 -13 32 -19 29 -13 -9 15 -65 52
-65 43z"/>
<path d="M1267 1049 c7 -7 15 -10 18 -7 3 3 -2 9 -12 12 -14 6 -15 5 -6 -5z"/>
<path d="M1370 1050 c8 -5 24 -10 34 -10 26 0 18 6 -19 14 -22 5 -26 4 -15 -4z"/>
<path d="M1658 1053 c6 -2 18 -2 25 0 6 3 1 5 -13 5 -14 0 -19 -2 -12 -5z"/>
<path d="M1883 1038 c1 -16 5 -28 9 -28 10 0 9 9 -2 35 -8 17 -8 16 -7 -7z"/>
<path d="M1660 1040 c-43 -5 -29 -7 60 -7 85 -1 105 1 75 8 -44 9 -56 9 -135
-1z"/>
<path d="M1300 1036 c0 -2 7 -7 16 -10 8 -3 12 -2 9 4 -6 10 -25 14 -25 6z"/>
<path d="M1445 1030 c11 -5 27 -9 35 -9 13 -1 13 0 0 9 -8 5 -24 9 -35 9 l-20
0 20 -9z"/>
<path d="M1840 1036 c0 -2 7 -7 16 -10 8 -3 12 -2 9 4 -6 10 -25 14 -25 6z"/>
<path d="M251 1010 c0 -8 4 -22 9 -30 12 -18 12 -2 0 25 -6 13 -9 15 -9 5z"/>
<path d="M1280 996 c0 -2 8 -10 18 -17 15 -13 16 -12 3 4 -13 16 -21 21 -21
13z"/>
<path d="M1040 980 c0 -5 -6 -10 -13 -10 -8 0 -14 -7 -14 -15 0 -13 2 -13 17
0 11 10 38 15 80 15 52 0 68 -4 89 -22 14 -13 19 -15 12 -5 -7 9 -10 17 -5 17
5 0 -4 7 -20 15 -32 17 -146 21 -146 5z"/>
<path d="M1449 960 c30 -17 59 -30 65 -30 13 1 -94 59 -109 59 -5 1 14 -13 44
-29z"/>
<path d="M498 973 c7 -3 16 -2 19 1 4 3 -2 6 -13 5 -11 0 -14 -3 -6 -6z"/>
<path d="M730 970 c-8 -5 -10 -10 -5 -10 6 0 17 5 25 10 8 5 11 10 5 10 -5 0
-17 -5 -25 -10z"/>
<path d="M886 954 c-15 -14 -26 -27 -24 -29 2 -3 17 9 33 25 35 36 30 39 -9 4z"/>
<path d="M1320 966 c0 -2 8 -10 18 -17 15 -13 16 -12 3 4 -13 16 -21 21 -21
13z"/>
<path d="M420 948 c0 -5 49 -8 109 -8 60 0 118 -3 128 -6 14 -4 15 -4 3 4 -18
12 -240 20 -240 10z"/>
<path d="M690 950 c-9 -6 -10 -10 -3 -10 6 0 15 5 18 10 8 12 4 12 -15 0z"/>
<path d="M1221 956 c2 -2 15 -9 29 -15 24 -11 24 -11 6 3 -16 13 -49 24 -35
12z"/>
<path d="M1708 953 c7 -3 16 -2 19 1 4 3 -2 6 -13 5 -11 0 -14 -3 -6 -6z"/>
<path d="M1865 950 c-3 -5 -1 -10 4 -10 6 0 11 5 11 10 0 6 -2 10 -4 10 -3 0
-8 -4 -11 -10z"/>
<path d="M1905 953 c14 -11 19 -77 5 -68 -6 4 -10 -9 -10 -35 0 -43 -23 -100
-41 -100 -6 0 -7 5 -4 10 12 20 -14 10 -29 -11 -15 -22 -11 -53 5 -43 5 3 9 0
9 -6 0 -7 -9 -14 -20 -17 -11 -3 -20 -13 -20 -23 0 -10 -6 -21 -12 -23 -10 -4
-10 -6 0 -6 8 -1 16 8 19 18 3 11 13 21 24 24 12 3 19 14 19 30 0 14 7 28 15
31 9 3 23 22 31 41 8 20 19 33 25 29 6 -3 5 3 -2 14 -10 16 -10 26 -1 44 6 13
13 39 14 58 2 28 -1 35 -17 38 -12 2 -16 0 -10 -5z"/>
<path d="M1750 940 c8 -5 24 -10 34 -10 26 0 18 6 -19 14 -22 5 -26 4 -15 -4z"/>
<path d="M1835 940 c-3 -5 -1 -10 4 -10 6 0 11 5 11 10 0 6 -2 10 -4 10 -3 0
-8 -4 -11 -10z"/>
<path d="M1360 936 c0 -2 8 -10 18 -17 15 -13 16 -12 3 4 -13 16 -21 21 -21
13z"/>
<path d="M270 916 c0 -7 6 -19 14 -25 8 -7 12 -21 9 -31 -4 -14 7 -33 32 -61
20 -22 34 -47 31 -54 -2 -7 2 -16 10 -19 8 -3 14 0 14 6 0 6 8 21 17 32 10 12
11 15 3 9 -8 -7 -17 -13 -21 -13 -9 0 -24 41 -21 54 3 10 -18 36 -30 36 -5 0
-4 -10 3 -22 l11 -23 -23 22 -23 23 25 27 c13 15 16 21 5 13 -16 -13 -20 -12
-32 4 -7 11 -11 23 -8 27 3 5 0 9 -5 9 -6 0 -11 -6 -11 -14z"/>
<path d="M906 911 c-10 -11 -16 -26 -13 -33 4 -10 6 -10 6 1 1 8 8 23 18 33 9
10 14 18 11 18 -3 0 -13 -9 -22 -19z"/>
<path d="M1296 910 c12 -14 20 -31 18 -38 -1 -7 0 -8 3 -2 3 7 14 3 29 -11 13
-12 24 -20 24 -18 0 3 -21 25 -47 49 -26 25 -38 34 -27 20z"/>
<path d="M1530 926 c0 -2 7 -7 16 -10 8 -3 12 -2 9 4 -6 10 -25 14 -25 6z"/>
<path d="M1860 919 c0 -5 5 -7 10 -4 6 3 10 8 10 11 0 2 -4 4 -10 4 -5 0 -10
-5 -10 -11z"/>
<path d="M1956 917 c3 -10 9 -15 12 -12 3 3 0 11 -7 18 -10 9 -11 8 -5 -6z"/>
<path d="M793 873 l-53 -46 -97 0 -98 -1 89 -3 89 -4 -34 -37 c-36 -38 -14
-23 55 40 22 20 43 35 46 34 3 -2 18 12 33 30 38 45 32 42 -30 -13z"/>
<path d="M969 903 c-13 -16 -12 -17 4 -4 9 7 17 15 17 17 0 8 -8 3 -21 -13z"/>
<path d="M570 900 c-8 -5 -10 -10 -5 -10 6 0 17 5 25 10 8 5 11 10 5 10 -5 0
-17 -5 -25 -10z"/>
<path d="M1411 893 c7 -12 15 -20 18 -17 3 2 -3 12 -13 22 -17 16 -18 16 -5
-5z"/>
<path d="M1820 902 c0 -5 7 -9 15 -9 8 0 12 4 9 9 -3 4 -9 8 -15 8 -5 0 -9 -4
-9 -8z"/>
<path d="M1251 870 c14 -31 19 -36 19 -24 0 6 -7 19 -16 30 -14 18 -14 18 -3
-6z"/>
<path d="M854 858 l-19 -23 23 19 c21 18 27 26 19 26 -2 0 -12 -10 -23 -22z"/>
<path d="M1440 876 c0 -2 8 -10 18 -17 15 -13 16 -12 3 4 -13 16 -21 21 -21
13z"/>
<path d="M1851 864 c0 -11 3 -14 6 -6 3 7 2 16 -1 19 -3 4 -6 -2 -5 -13z"/>
<path d="M480 860 c-8 -5 -10 -10 -5 -10 6 0 17 5 25 10 8 5 11 10 5 10 -5 0
-17 -5 -25 -10z"/>
<path d="M1480 846 c0 -2 8 -10 18 -17 15 -13 16 -12 3 4 -13 16 -21 21 -21
13z"/>
<path d="M1710 835 c23 -13 16 -14 -81 -15 -81 0 -106 -3 -106 -13 0 -8 6 -14
13 -14 7 0 11 4 8 9 -3 4 48 8 113 8 l118 1 -35 19 c-40 22 -68 27 -30 5z"/>
<path d="M389 824 c-8 -9 -5 -11 11 -7 13 4 26 -1 36 -13 14 -18 15 -18 5 2
-6 12 -8 24 -5 27 4 3 -4 5 -15 4 -12 -1 -27 -7 -32 -13z"/>
<path d="M776 825 c-9 -26 -7 -32 5 -12 6 10 9 21 6 23 -2 3 -7 -2 -11 -11z"/>
<path d="M820 810 c-8 -15 -8 -18 3 -14 8 3 14 11 14 19 0 20 -4 19 -17 -5z"/>
<path d="M1321 814 c0 -11 3 -14 6 -6 3 7 2 16 -1 19 -3 4 -6 -2 -5 -13z"/>
<path d="M871 783 c-1 -27 -17 -30 -25 -5 -3 9 -3 -1 -1 -23 3 -22 5 -70 5
-107 l0 -68 30 0 30 0 2 80 c0 44 1 86 2 93 1 6 -7 11 -16 9 -10 -2 -18 6 -21
20 l-4 23 -2 -22z"/>
<path d="M1401 780 c7 -14 15 -76 17 -137 l5 -113 33 0 34 0 1 100 c2 114 1
110 13 130 7 12 6 13 -5 3 -19 -18 -37 -16 -42 5 -4 16 -5 16 -6 0 -1 -17 -31
-26 -31 -10 0 5 -7 17 -16 28 -14 18 -14 17 -3 -6z"/>
<path d="M1560 786 c0 -2 8 -10 18 -17 15 -13 16 -12 3 4 -13 16 -21 21 -21
13z"/>
<path d="M321 764 c0 -11 3 -14 6 -6 3 7 2 16 -1 19 -3 4 -6 -2 -5 -13z"/>
<path d="M1287 770 c-2 -3 -1 -44 1 -92 l3 -88 35 0 34 0 0 90 c0 50 -3 90 -7
91 -39 4 -65 4 -66 -1z"/>
<path d="M751 753 c-1 -7 -11 -13 -22 -13 -17 0 -20 -4 -15 -22 3 -13 6 -62 6
-110 l0 -88 35 0 35 0 0 104 c0 57 2 110 3 118 2 7 2 10 0 6 -7 -12 -31 -9
-36 5 -4 10 -6 10 -6 0z"/>
<path d="M1600 756 c0 -2 8 -10 18 -17 15 -13 16 -12 3 4 -13 16 -21 21 -21
13z"/>
<path d="M619 723 l-24 -28 28 24 c25 23 32 31 24 31 -2 0 -14 -12 -28 -27z"/>
<path d="M440 720 c0 -5 5 -10 10 -10 6 0 10 5 10 10 0 6 -4 10 -10 10 -5 0
-10 -4 -10 -10z"/>
<path d="M1640 726 c0 -2 8 -10 18 -17 15 -13 16 -12 3 4 -13 16 -21 21 -21
13z"/>
<path d="M1771 704 c0 -11 3 -14 6 -6 3 7 2 16 -1 19 -3 4 -6 -2 -5 -13z"/>
<path d="M392 698 c-16 -16 -15 -45 1 -55 27 -18 102 -31 109 -20 11 19 -1 27
-32 20 -62 -12 -103 20 -68 55 7 7 10 12 7 12 -3 0 -10 -5 -17 -12z"/>
<path d="M1737 704 c-8 -8 1 -24 14 -24 5 0 9 7 9 15 0 15 -12 20 -23 9z"/>
<path d="M569 683 c-13 -16 -12 -17 4 -4 9 7 17 15 17 17 0 8 -8 3 -21 -13z"/>
<path d="M430 680 c0 -5 5 -10 11 -10 5 0 7 5 4 10 -3 6 -8 10 -11 10 -2 0 -4
-4 -4 -10z"/>
<path d="M1705 649 c-11 -16 -1 -19 13 -3 7 8 8 14 3 14 -5 0 -13 -5 -16 -11z"/>
<path d="M1836 645 c-3 -8 -1 -15 3 -15 5 0 11 7 15 15 3 8 1 15 -3 15 -5 0
-11 -7 -15 -15z"/>
<path d="M1725 630 c-3 -5 -1 -10 4 -10 6 0 11 5 11 10 0 6 -2 10 -4 10 -3 0
-8 -4 -11 -10z"/>
<path d="M1054 619 c-39 -11 -57 -32 -50 -57 19 -58 176 -54 184 4 6 39 -74
71 -134 53z m106 -25 c13 -13 13 -16 0 -24 -32 -20 -140 -4 -140 21 0 13 62
28 95 22 17 -3 37 -11 45 -19z"/>
<path d="M560 609 c0 -5 5 -7 10 -4 6 3 10 8 10 11 0 2 -4 4 -10 4 -5 0 -10
-5 -10 -11z"/>
<path d="M1752 567 c-12 -27 -25 -47 -29 -44 -3 4 -12 -1 -19 -11 -11 -15 -15
-15 -36 -3 -21 13 -22 13 -9 -2 19 -23 44 -21 68 6 25 26 55 85 51 97 -2 4
-13 -15 -26 -43z"/>
<path d="M1670 600 c0 -5 4 -10 9 -10 6 0 13 5 16 10 3 6 -1 10 -9 10 -9 0
-16 -4 -16 -10z"/>
<path d="M1785 580 c-3 -5 -1 -10 4 -10 6 0 11 5 11 10 0 6 -2 10 -4 10 -3 0
-8 -4 -11 -10z"/>
<path d="M527 563 c6 -16 5 -17 -12 -3 -17 14 -18 13 -12 -2 8 -22 -21 -25
-43 -5 -12 10 -12 9 -1 -5 9 -12 27 -18 57 -18 40 0 44 -2 44 -25 0 -27 48
-65 82 -65 9 0 20 -9 23 -21 11 -34 44 -19 66 31 13 32 14 39 4 25 -9 -11 -18
-30 -22 -42 -3 -13 -11 -23 -18 -23 -22 0 -27 18 -9 28 15 8 14 11 -7 26 -31
21 -50 21 -42 -1 6 -15 3 -15 -28 3 -25 15 -35 28 -37 51 -2 23 -7 30 -18 26
-9 -3 -14 2 -14 16 0 12 -4 21 -10 21 -5 0 -6 -8 -3 -17z"/>
<path d="M1609 563 c-13 -16 -12 -17 4 -4 9 7 17 15 17 17 0 8 -8 3 -21 -13z"/>
<path d="M607 543 c-4 -3 -7 -11 -7 -17 0 -6 5 -5 12 2 6 6 9 14 7 17 -3 3 -9
2 -12 -2z"/>
<path d="M1580 521 c0 -5 5 -13 10 -16 6 -3 10 -2 10 4 0 5 -4 13 -10 16 -5 3
-10 2 -10 -4z"/>
<path d="M660 510 c-9 -6 -10 -10 -3 -10 6 0 19 -3 27 -6 12 -5 15 -2 10 10
-7 18 -13 20 -34 6z"/>
<path d="M1628 505 c6 -11 21 -29 34 -40 22 -19 22 -19 -2 10 -40 48 -43 51
-32 30z"/>
<path d="M1510 491 c0 -12 29 -23 41 -15 5 3 9 11 9 17 0 7 -4 6 -11 -3 -8
-11 -12 -12 -16 -2 -5 14 -23 16 -23 3z"/>
<path d="M1600 486 c0 -2 8 -10 18 -17 15 -13 16 -12 3 4 -13 16 -21 21 -21
13z"/>
<path d="M755 461 c-11 -18 -35 -95 -28 -87 5 4 13 22 19 39 7 20 19 34 35 37
21 5 22 7 6 13 -24 9 -25 9 -32 -2z"/>
<path d="M1625 440 c-3 -5 -12 -7 -19 -4 -8 3 -16 -4 -19 -17 -4 -15 -11 -20
-22 -15 -9 3 -13 2 -10 -4 10 -17 33 -11 40 9 3 11 12 18 19 15 7 -3 16 2 19
10 7 18 2 22 -8 6z"/>
<path d="M796 429 c3 -5 12 -9 21 -9 19 0 9 13 -12 16 -8 1 -13 -2 -9 -7z"/>
<path d="M603 423 c-15 -5 -17 -23 -4 -23 5 0 11 7 15 15 3 8 4 15 3 14 -1 0
-8 -3 -14 -6z"/>
<path d="M1368 414 c-16 -8 -28 -20 -27 -27 0 -9 2 -9 6 1 2 6 10 12 18 12 7
0 18 7 25 15 15 18 13 18 -22 -1z"/>
<path d="M1415 420 c-3 -6 1 -7 9 -4 18 7 21 14 7 14 -6 0 -13 -4 -16 -10z"/>
<path d="M830 396 c19 -7 43 -11 53 -8 27 7 14 13 -39 16 l-49 4 35 -12z"/>
<path d="M906 374 c-8 -21 -5 -23 19 -13 11 4 14 8 7 8 -7 1 -10 6 -7 11 3 6
2 10 -3 10 -6 0 -13 -7 -16 -16z"/>
<path d="M1108 383 c7 -3 16 -2 19 1 4 3 -2 6 -13 5 -11 0 -14 -3 -6 -6z"/>
<path d="M1195 380 c-3 -5 -2 -10 4 -10 5 0 13 5 16 10 3 6 2 10 -4 10 -5 0
-13 -4 -16 -10z"/>
<path d="M1370 379 c0 -5 5 -7 10 -4 6 3 10 8 10 11 0 2 -4 4 -10 4 -5 0 -10
-5 -10 -11z"/>
<path d="M785 369 c-4 -6 -13 -8 -21 -5 -8 3 -14 2 -14 -3 0 -15 13 -21 26
-10 9 8 21 5 42 -11 22 -16 47 -23 101 -26 40 -2 83 -10 98 -19 l28 -16 -27 4
c-15 2 -29 -1 -32 -8 -3 -9 10 -11 46 -7 42 4 49 2 43 -9 -7 -12 -5 -12 6 -1
12 11 12 14 -1 22 -8 5 -13 10 -10 11 3 0 41 6 84 12 44 7 81 17 83 24 2 6 -9
19 -25 27 -26 13 -34 13 -78 0 -27 -8 -57 -13 -66 -10 -10 2 -18 0 -18 -5 0
-12 35 -11 80 2 38 11 90 6 90 -9 0 -10 -180 -31 -198 -24 -8 2 -18 14 -22 26
-8 19 -9 19 -9 2 -1 -14 -6 -17 -23 -12 -13 3 -45 6 -71 6 -38 0 -53 5 -73 25
-28 28 -30 29 -39 14z"/>
<path d="M1035 370 c3 -5 8 -10 11 -10 2 0 4 5 4 10 0 6 -5 10 -11 10 -5 0 -7
-4 -4 -10z"/>
<path d="M1251 373 c0 -4 4 -17 9 -28 8 -19 9 -19 9 2 1 12 -3 25 -9 28 -5 3
-10 3 -9 -2z"/>
<path d="M775 330 c-3 -5 -1 -10 4 -10 6 0 11 5 11 10 0 6 -2 10 -4 10 -3 0
-8 -4 -11 -10z"/>
<path d="M884 293 c10 -11 36 -12 36 -2 0 5 -10 9 -22 9 -12 0 -18 -3 -14 -7z"/>
<path d="M1223 273 c9 -2 23 -2 30 0 6 3 -1 5 -18 5 -16 0 -22 -2 -12 -5z"/>
<path d="M540 2011 c0 -16 41 -81 51 -81 13 0 11 7 -13 50 -22 38 -38 51 -38
31z"/>
<path d="M476 1977 c-10 -7 -16 -22 -14 -33 3 -15 11 -19 42 -17 41 3 48 -19
8 -25 -27 -4 -29 -22 -3 -22 25 0 53 28 49 49 -3 12 -13 15 -42 14 -26 -2 -36
1 -33 10 2 6 12 11 21 11 9 -1 15 3 13 9 -5 17 -21 18 -41 4z"/>
<path d="M1666 1961 c-22 -24 -17 -59 10 -78 42 -27 98 49 62 85 -18 18 -53
14 -72 -7z m64 -20 c0 -26 -27 -52 -45 -45 -30 12 -13 64 21 64 17 0 24 -6 24
-19z"/>
<path d="M386 1898 l-25 -23 34 -39 c19 -22 38 -36 41 -33 4 4 1 14 -6 22 -20
24 3 44 30 27 25 -15 36 2 12 20 -10 7 -21 21 -25 31 -9 23 -31 21 -61 -5z
m44 -12 c0 -18 -17 -29 -30 -21 -8 5 -7 11 1 21 15 18 29 18 29 0z"/>
<path d="M1767 1892 c-32 -33 -35 -67 -7 -82 25 -13 50 -1 73 34 24 36 2 42
-23 6 -24 -33 -38 -38 -47 -14 -3 9 5 26 22 44 14 15 22 30 17 34 -5 3 -21 -7
-35 -22z"/>
<path d="M311 1822 l-20 -29 35 -34 34 -33 27 27 c30 30 24 50 -7 22 -24 -22
-36 -14 -21 13 17 31 13 37 -9 17 -26 -23 -39 -11 -16 14 10 11 13 21 7 25 -5
3 -19 -7 -30 -22z"/>
<path d="M1835 1800 c-29 -30 -29 -54 1 -29 14 12 16 9 12 -20 -1 -18 2 -34 7
-35 6 0 11 11 13 27 3 23 8 27 33 27 18 0 28 4 24 10 -3 6 -17 10 -31 10 -26
0 -31 9 -12 28 9 9 9 12 -3 12 -8 0 -28 -13 -44 -30z"/>
<path d="M260 1756 c0 -8 4 -18 10 -21 5 -3 15 -15 20 -25 10 -18 8 -19 -15
-10 -32 12 -55 13 -55 2 0 -10 99 -36 107 -29 5 6 -54 97 -62 97 -3 0 -5 -6
-5 -14z"/>
<path d="M1908 1713 c-21 -14 -35 -30 -32 -35 4 -6 10 -6 17 1 20 20 28 11 21
-24 -8 -44 12 -48 21 -4 6 28 10 31 37 25 26 -5 29 -4 18 9 -7 8 -22 15 -33
15 -16 0 -18 3 -9 12 13 13 16 28 5 27 -5 0 -25 -12 -45 -26z"/>
<path d="M200 1662 c0 -8 71 -52 84 -52 18 0 1 19 -33 38 -42 24 -51 26 -51
14z"/>
<path d="M175 1620 c-3 -5 7 -16 22 -24 l28 -14 -38 -7 c-20 -4 -37 -11 -37
-16 0 -8 71 -49 85 -49 16 0 1 22 -22 32 -25 10 -26 12 -8 15 53 10 65 14 65
21 0 13 -89 52 -95 42z"/>
<path d="M1943 1603 c-20 -7 -15 -20 8 -26 17 -5 20 -11 15 -31 -3 -14 -2 -26
3 -26 11 0 71 70 71 82 0 9 -77 10 -97 1z m62 -23 c-3 -5 -10 -10 -16 -10 -5
0 -9 5 -9 10 0 6 7 10 16 10 8 0 12 -4 9 -10z"/>
<path d="M2028 1516 c-20 -6 -39 -14 -43 -18 -10 -9 5 -68 17 -68 5 0 7 12 3
30 -5 22 -3 30 7 30 23 1 73 26 63 31 -6 3 -27 1 -47 -5z"/>
<path d="M130 1506 c0 -7 15 -17 32 -22 37 -11 52 -44 19 -44 -11 0 -32 5 -46
10 -20 8 -26 7 -23 -2 3 -7 21 -17 41 -22 40 -10 67 3 67 34 0 21 -15 34 -57
48 -26 9 -33 8 -33 -2z"/>
<path d="M2052 1427 c-24 -7 -43 -16 -42 -22 2 -18 90 6 90 25 0 5 -1 10 -2 9
-2 -1 -22 -6 -46 -12z"/>
<path d="M70 1210 c0 -5 9 -10 20 -10 15 0 20 -7 20 -26 0 -14 4 -23 10 -19 5
3 10 15 10 26 0 10 5 19 10 19 6 0 10 -11 10 -25 0 -14 5 -25 10 -25 6 0 10
16 10 35 l0 35 -50 0 c-27 0 -50 -4 -50 -10z"/>
<path d="M2067 1203 c-11 -11 -8 -58 5 -71 7 -7 24 -12 38 -12 14 0 31 5 38
12 17 17 15 53 -3 68 -20 17 -32 5 -15 -15 17 -21 5 -45 -24 -45 -26 0 -43 27
-26 44 5 5 10 14 10 18 0 10 -14 11 -23 1z"/>
<path d="M70 1120 c0 -5 5 -10 10 -10 14 0 13 -33 -2 -48 -22 -22 0 -23 46 0
25 12 46 27 46 34 0 6 -20 17 -44 23 -55 13 -56 13 -56 1z m65 -30 c-3 -5 -10
-10 -16 -10 -5 0 -9 5 -9 10 0 6 7 10 16 10 8 0 12 -4 9 -10z"/>
<path d="M2067 1082 c-34 -37 -15 -82 33 -82 34 0 50 17 50 52 0 21 -6 31 -26
38 -34 13 -38 13 -57 -8z m58 -16 c27 -19 13 -48 -22 -44 -31 3 -44 35 -21 49
18 12 21 11 43 -5z"/>
<path d="M102 1014 c-12 -8 -22 -24 -22 -34 0 -20 29 -55 38 -45 3 3 0 11 -6
17 -18 18 -15 36 9 48 29 16 51 -4 42 -38 -4 -17 -2 -23 6 -18 19 12 13 64 -8
76 -26 13 -33 13 -59 -6z"/>
<path d="M2041 962 c-22 -42 -14 -58 34 -69 46 -10 79 3 36 14 -28 7 -23 37 7
41 29 4 29 22 0 22 -13 0 -33 3 -45 6 -15 4 -24 0 -32 -14z m39 -22 c0 -11 -7
-20 -15 -20 -15 0 -21 21 -8 33 12 13 23 7 23 -13z"/>
<path d="M138 908 c-22 -7 -28 -16 -28 -38 0 -40 18 -52 63 -38 20 6 37 17 37
24 0 10 -7 11 -30 2 -32 -11 -60 -5 -60 11 0 6 18 16 40 22 22 7 40 16 40 21
0 10 -28 9 -62 -4z"/>
<path d="M2006 841 c-3 -5 15 -26 40 -46 l45 -37 -6 36 c-6 29 -4 36 9 36 9 0
16 5 16 10 0 12 -97 13 -104 1z m58 -22 c-6 -11 -24 -2 -24 11 0 5 7 7 15 4 8
-4 12 -10 9 -15z"/>
<path d="M168 802 c-37 -17 -37 -17 -23 -49 17 -41 29 -43 20 -4 -6 27 -3 30
29 41 20 6 36 16 36 21 0 13 -19 10 -62 -9z"/>
<path d="M1980 762 c0 -9 9 -23 20 -30 29 -18 25 -34 -6 -22 -35 14 -44 13
-44 -5 0 -16 78 -60 88 -49 4 4 2 9 -4 11 -6 2 -20 10 -30 18 -17 14 -17 14 9
5 41 -15 52 -2 25 27 -23 25 -23 25 -1 14 27 -14 33 -14 33 -1 0 8 -70 50 -85
50 -3 0 -5 -8 -5 -18z"/>
<path d="M243 741 c3 -14 -4 -23 -29 -35 -19 -8 -34 -20 -34 -26 0 -13 6 -13
41 6 24 12 34 13 45 3 19 -16 19 3 -1 41 -17 34 -30 40 -22 11z"/>
<path d="M248 643 c-36 -25 -37 -26 -23 -54 18 -33 43 -53 31 -23 -16 38 -18
54 -8 54 6 0 17 -10 23 -22 7 -13 14 -18 16 -11 3 7 -1 21 -7 32 -8 17 -8 21
4 21 8 0 18 -9 21 -20 6 -18 25 -29 25 -14 0 10 -34 64 -40 63 -3 0 -22 -12
-42 -26z"/>
<path d="M1894 609 c-7 -12 47 -99 58 -93 4 3 5 11 1 19 -6 17 15 47 27 40 5
-3 11 -1 15 5 3 5 5 10 3 10 -2 0 -24 7 -50 15 -30 9 -50 10 -54 4z m47 -32
c-1 -12 -15 -9 -19 4 -3 6 1 10 8 8 6 -3 11 -8 11 -12z"/>
<path d="M331 525 c-36 -31 -38 -45 -13 -68 26 -23 45 -21 72 8 23 25 23 27 8
53 -22 36 -30 37 -67 7z m54 -37 c-9 -23 -35 -31 -52 -17 -11 10 -10 16 9 36
18 20 24 21 35 10 8 -7 11 -21 8 -29z"/>
<path d="M1826 518 c-22 -30 -21 -32 21 -63 l36 -28 19 22 c23 30 23 46 -2 71
-26 26 -55 25 -74 -2z m58 -14 c32 -32 9 -55 -30 -29 -20 13 -23 19 -13 31 15
18 24 18 43 -2z"/>
<path d="M399 434 l-34 -35 29 -25 c33 -29 48 -24 21 6 -13 14 -15 24 -8 31 7
7 14 5 23 -6 7 -8 17 -15 23 -15 5 0 2 9 -8 20 -23 25 -12 39 13 17 27 -25 36
-7 10 20 -12 13 -24 23 -28 23 -3 0 -22 -16 -41 -36z"/>
<path d="M1780 462 c0 -14 66 -73 73 -65 4 4 -7 22 -25 40 -31 32 -48 41 -48
25z"/>
<path d="M1720 412 l-21 -17 34 -40 c35 -40 35 -40 56 -21 26 23 27 57 3 79
-24 22 -44 21 -72 -1z m64 -24 c8 -13 7 -21 -2 -30 -10 -10 -17 -8 -33 9 -23
22 -18 46 8 41 9 -2 21 -11 27 -20z"/>
<path d="M484 385 c-4 -8 1 -27 11 -41 21 -33 9 -46 -15 -16 -10 12 -21 18
-25 13 -6 -11 29 -51 44 -51 5 0 14 7 21 15 10 12 9 20 -4 40 -20 30 -20 35
-2 35 7 0 17 -10 21 -22 6 -20 8 -21 12 -5 10 37 -50 67 -63 32z"/>
<path d="M1646 352 c-5 -9 15 -102 23 -102 4 0 11 10 16 23 7 16 17 21 35 19
23 -2 22 0 -14 33 -40 36 -51 41 -60 27z m42 -40 c6 -18 -15 -14 -22 4 -4 10
-1 14 6 12 6 -2 14 -10 16 -16z"/>
<path d="M600 305 c-11 -13 -9 -20 9 -38 11 -13 21 -26 21 -30 0 -14 -29 -6
-39 10 -5 10 -13 15 -17 10 -12 -12 28 -48 50 -45 29 4 32 36 5 64 -19 20 -20
24 -5 24 9 0 19 -7 22 -15 7 -16 24 -21 24 -6 0 14 -29 41 -44 41 -8 0 -19 -7
-26 -15z"/>
<path d="M1587 314 c-3 -4 3 -25 14 -47 l21 -40 -21 6 c-14 3 -21 0 -21 -9 0
-18 34 -18 49 0 10 11 8 23 -9 55 -22 43 -23 45 -33 35z"/>
<path d="M680 251 c-27 -52 5 -105 50 -81 28 15 25 23 -4 16 -29 -7 -40 6 -32
40 7 27 46 35 46 9 0 -8 5 -15 10 -15 14 0 13 23 -2 38 -18 18 -56 14 -68 -7z"/>
<path d="M1440 240 c0 -22 33 -90 44 -90 19 1 59 27 49 33 -5 3 -15 2 -23 -4
-23 -14 -26 -12 -40 31 -12 36 -30 54 -30 30z"/>
<path d="M780 215 c-17 -46 -22 -75 -13 -75 5 0 16 23 25 50 16 51 6 72 -12
25z"/>
<path d="M826 217 c-28 -99 -29 -91 22 -102 19 -4 32 -3 32 4 0 5 -10 11 -22
13 -13 2 -24 11 -26 21 -3 14 0 16 22 7 18 -6 26 -6 26 1 0 6 -9 13 -20 16
-29 8 -24 26 5 21 14 -3 28 -1 31 3 3 5 4 9 2 9 -2 0 -18 4 -36 9 -24 7 -34 7
-36 -2z"/>
<path d="M1373 223 c-27 -5 -26 -2 -12 -59 6 -24 16 -44 23 -44 23 0 56 13 56
21 0 5 -11 7 -24 3 -33 -8 -43 14 -12 26 36 13 33 23 -4 15 -37 -8 -41 11 -5
25 43 17 32 23 -22 13z"/>
<path d="M915 175 c-3 -14 -7 -36 -10 -50 -8 -37 10 -30 22 8 l9 32 13 -37
c20 -60 31 -51 44 35 6 38 -12 34 -20 -4 l-6 -32 -15 37 c-17 42 -30 46 -37
11z"/>
<path d="M1233 193 c-7 -2 -13 -16 -13 -29 0 -19 6 -26 30 -30 17 -4 30 -10
30 -14 0 -14 -27 -19 -39 -7 -13 13 -26 3 -16 -12 7 -13 45 -14 63 -2 23 14 9
45 -23 51 -35 6 -34 26 1 23 21 -2 24 0 14 13 -13 14 -25 16 -47 7z"/>
<path d="M1024 164 c-13 -19 -15 -32 -8 -52 11 -32 54 -42 74 -17 11 14 9 15
-21 13 -28 -2 -34 1 -37 17 -1 11 2 27 8 35 8 13 13 13 31 2 27 -17 40 -5 15
14 -28 20 -43 17 -62 -12z"/>
<path d="M1148 183 c-24 -4 -28 -9 -28 -38 0 -53 8 -65 46 -65 19 0 34 5 34
10 0 6 -14 10 -31 10 -35 0 -36 23 -1 28 12 2 22 7 22 11 0 5 -11 6 -25 3 -18
-3 -25 0 -25 12 0 10 9 16 25 16 14 0 25 5 25 10 0 6 -3 9 -7 9 -5 -1 -20 -4
-35 -6z"/>
</g>
</svg>
